<?xml version="1.0" standalone="no"?><!DOCTYPE svg PUBLIC "-//W3C//DTD SVG 1.1//EN" "http://www.w3.org/Graphics/SVG/1.1/DTD/svg11.dtd"><svg t="1751870498562" class="icon" viewBox="0 0 1024 1024" version="1.1" xmlns="http://www.w3.org/2000/svg" p-id="23988" xmlns:xlink="http://www.w3.org/1999/xlink" width="200" height="200"><path d="M803.986286 900.242286c10.971429 0 20.114286-3.730286 27.648-11.264a37.595429 37.595429 0 0 0 11.264-27.648V171.154286a37.595429 37.595429 0 0 0-11.264-27.648 38.838857 38.838857 0 0 0-28.672-11.264 38.473143 38.473143 0 0 0-34.816 21.504l-256 529.408-256-529.408a38.034286 38.034286 0 0 0-34.816-21.504 38.838857 38.838857 0 0 0-28.672 11.264 37.595429 37.595429 0 0 0-11.264 27.648v690.176c0 10.971429 3.730286 20.114286 11.264 27.648a37.595429 37.595429 0 0 0 27.648 11.264c10.971429 0 20.333714-3.730286 28.16-11.264a36.790857 36.790857 0 0 0 11.776-27.648V322.706286l217.088 448.512a41.691429 41.691429 0 0 0 14.336 16.384 38.619429 38.619429 0 0 0 41.472 0 40.448 40.448 0 0 0 14.848-16.384l216.064-448.512v538.624c0 10.971429 3.949714 20.114286 11.776 27.648a39.277714 39.277714 0 0 0 28.16 11.264z" fill="#f4ea2a" p-id="23989"></path></svg>