<?xml version="1.0" standalone="no"?><!DOCTYPE svg PUBLIC "-//W3C//DTD SVG 1.1//EN" "http://www.w3.org/Graphics/SVG/1.1/DTD/svg11.dtd"><svg t="1752318997489" class="icon" viewBox="0 0 1024 1024" version="1.1" xmlns="http://www.w3.org/2000/svg" p-id="31431" data-spm-anchor-id="a313x.search_index.0.i48.1a303a81iEpDoZ" xmlns:xlink="http://www.w3.org/1999/xlink" width="200" height="200"><path d="M64 1024h960V576H64z" fill="#1296db" fill-opacity=".7" p-id="31432" data-spm-anchor-id="a313x.search_index.0.i49.1a303a81iEpDoZ" class=""></path><path d="M448 64L192 320h256z" fill="#9AA7B0" fill-opacity=".8" p-id="31433"></path><path d="M512 64v320H192v128h640V64z" fill="#1afa29" fill-opacity=".8" p-id="31434" data-spm-anchor-id="a313x.search_index.0.i50.1a303a81iEpDoZ" class=""></path><path d="M128 640h59.904L288 768l94.656-128H448v320H384v-211.2l-96 115.2L192 748.8V960H128zM576 704v192h41.536c59.456 0 86.464-32.448 86.464-95.04V800c0-62.592-27.008-96-86.464-96H576z m-64-64h105.536C706.56 640 768 709.952 768 800c0 90.944-61.44 160-150.464 160H512v-320z" fill="#1afa29" fill-opacity=".7" p-id="31435" data-spm-anchor-id="a313x.search_index.0.i46.1a303a81iEpDoZ" class="selected"></path></svg>