<?xml version="1.0" standalone="no"?><!DOCTYPE svg PUBLIC "-//W3C//DTD SVG 1.1//EN" "http://www.w3.org/Graphics/SVG/1.1/DTD/svg11.dtd"><svg t="1752315411133" class="icon" viewBox="0 0 1085 1024" version="1.1" xmlns="http://www.w3.org/2000/svg" p-id="6694" xmlns:xlink="http://www.w3.org/1999/xlink" width="211.9140625" height="200"><path d="M1084.766 192.01322a188.248255 188.248255 0 0 0-54.689169-141.513874C936.382082-37.681289 744.879595-6.223718 542.439274 115.629174 339.998954-6.314113 148.451269-37.771685 54.846915 50.363753a188.248255 188.248255 0 0 0-54.689169 141.513874 609.309659 609.309659 0 0 0 122.033683 319.954238 609.309659 609.309659 0 0 0-122.033683 319.954237 188.248255 188.248255 0 0 0 54.689169 141.649467 209.310365 209.310365 0 0 0 147.751151 50.350194 700.563735 700.563735 0 0 0 339.931604-115.480022 700.563735 700.563735 0 0 0 339.931603 115.480022 209.310365 209.310365 0 0 0 147.751151-50.350194 188.248255 188.248255 0 0 0 54.689169-141.513874 609.309659 609.309659 0 0 0-122.033683-319.954237 609.038473 609.038473 0 0 0 122.033683-319.954238z m-95.99983-97.626946a128.180565 128.180565 0 0 1 35.751349 97.626946 531.43409 531.43409 0 0 1-99.434853 267.479754 1390.099241 1390.099241 0 0 0-151.773743-167.231343 1423.7263 1423.7263 0 0 0-173.513818-140.112747c166.508181-94.191924 320.044633-122.576055 388.971065-57.76261z m-100.022422 417.581184a1308.155882 1308.155882 0 0 1-156.835882 175.683305 1338.52871 1338.52871 0 0 1-189.513789 149.152279 1340.562605 1340.562605 0 0 1-189.468593-149.152279 1309.240626 1309.240626 0 0 1-156.835881-175.864096 1308.155882 1308.155882 0 0 1 156.835881-175.864096 1340.698198 1340.698198 0 0 1 189.51379-149.152279 1339.432663 1339.432663 0 0 1 189.51379 149.152279 1308.155882 1308.155882 0 0 1 156.790684 176.044887zM60.270634 192.01322a128.180565 128.180565 0 0 1 35.751349-97.626946 151.186174 151.186174 0 0 1 106.666479-34.982989 617.987609 617.987609 0 0 1 282.485377 93.016785 1423.409916 1423.409916 0 0 0-173.559016 139.886759 1390.099241 1390.099241 0 0 0-151.773743 167.231343 531.524485 531.524485 0 0 1-99.434853-267.479754z m35.751349 737.535421a128.180565 128.180565 0 0 1-35.751349-97.626946 531.43409 531.43409 0 0 1 99.434853-267.479754 1390.099241 1390.099241 0 0 0 151.773743 167.231343 1421.647208 1421.647208 0 0 0 173.513818 140.112747c-166.508181 94.191924-320.08983 122.530857-388.971065 57.76261z m928.495536-97.626946a128.180565 128.180565 0 0 1-35.751349 97.626946c-68.836037 64.90384-222.417686 36.51971-389.106658-57.9434a1422.099184 1422.099184 0 0 0 173.559016-140.112747 1390.099241 1390.099241 0 0 0 151.773743-167.231343 531.614881 531.614881 0 0 1 99.525248 267.660544z" fill="#5677FC" p-id="6695"></path><path d="M420.902766 481.59463a120.903741 120.903741 0 1 0 120.903741-120.903741 120.903741 120.903741 0 0 0-120.858544 120.903741z" fill="#5677FC" p-id="6696"></path></svg>