<svg width="1024" height="1024" xmlns="http://www.w3.org/2000/svg" p-id="76396" version="1.1" class="icon" t="1752159247639">
 <g>
  <title>Layer 1</title>
  <path id="svg_1" p-id="76397" fill="#ffffff" d="m579.3792,93.7472l16.41472,9.48224a88.23808,88.23808 0 0 1 37.95968,108.81024l-6.36928,16.1792c2.79552,0.50176 5.55008,1.42336 8.192,2.78528l1.56672,0.8704l191.83616,113.9712l0.23552,0.13312a88.23808,88.23808 0 1 1 40.31488,163.06176l-119.7568,362.94656l184.7296,0a29.40928,29.40928 0 0 1 0,58.8288l-431.39072,0a29.40928,29.40928 0 1 1 0,-58.81856l186.27584,0c0,-2.5088 0.31744,-5.04832 0.99328,-7.56736l0.49152,-1.64864l123.1872,-373.32992c0.43008,-1.3312 0.95232,-2.60096 1.54624,-3.81952a87.98208,87.98208 0 0 1 -28.16,-64.63488c0,-10.01472 1.65888,-19.64032 4.73088,-28.61056l-185.07776,-109.94688l-0.91136,-0.57344l-9.79968,24.832l-0.18432,0.45056c64.59392,92.69248 72.42752,222.23872 11.12064,332.2368l-2.56,4.5056a29.37856,29.37856 0 0 1 -22.9888,14.60224l-1.7408,0.1024l-1.7408,0a29.2864,29.2864 0 0 1 -13.70112,-3.9424l-111.2064,-64.2048c-42.3936,47.4112 -113.59232,60.3136 -170.86464,27.24864c-57.27232,-33.05472 -81.70496,-101.1712 -61.8496,-161.5872l-114.5856,-66.17088a29.40928,29.40928 0 0 1 -10.752,-40.17152c66.89792,-115.87584 192.33792,-175.872 311.06048,-159.25248l59.77088,-75.23328a88.23808,88.23808 0 0 1 113.21344,-21.53472zm-417.0752,260.74112l404.8896,233.74848c51.95776,-116.97152 14.53056,-251.99616 -89.69216,-312.1664c-104.22272,-60.17024 -239.872,-25.06752 -315.1872,78.41792l-0.01024,0zm149.62688,212.2752a78.45888,78.45888 0 0 0 88.49408,-6.88128l-126.78144,-73.20576a78.45888,78.45888 0 0 0 38.28736,80.0768l0,0.01024zm563.74272,-175.16544a29.40928,29.40928 0 1 0 0,58.81856a29.40928,29.40928 0 0 0 0,-58.81856zm-377.3952,-253.61408l-1.41312,1.6896l-47.88224,60.25216a277.9136,277.9136 0 0 1 57.93792,25.1904a277.53472,277.53472 0 0 1 60.79488,47.4112l29.56288,-74.88512a49.01888,49.01888 0 0 0 -19.21024,-59.31008l-1.88416,-1.13664l-16.41472,-9.48224a49.01888,49.01888 0 0 0 -61.4912,10.27072z"/>
 </g>

</svg>